<?xml version="1.0" encoding="UTF-8"?>
<svg width="129px" height="30px" viewBox="0 0 129 30" version="1.1" xmlns="http://www.w3.org/2000/svg" xmlns:xlink="http://www.w3.org/1999/xlink">
    <!-- Generator: Sketch 47 (45396) - http://www.bohemiancoding.com/sketch -->
    <title>皇冠</title>
    <desc>Created with Sketch.</desc>
    <defs>
        <linearGradient x1="50%" y1="1.35921556%" x2="50%" y2="97.0822704%" id="linearGradient-1">
            <stop stop-color="#FFE38E" offset="0%"></stop>
            <stop stop-color="#FEC107" offset="100%"></stop>
        </linearGradient>
        <radialGradient cx="46.8954921%" cy="64.2355681%" fx="46.8954921%" fy="64.2355681%" r="58.4927684%" gradientTransform="translate(0.468955,0.642356),scale(0.750000,1.000000),rotate(93.976549),translate(-0.468955,-0.642356)" id="radialGradient-2">
            <stop stop-color="#FFC6C6" offset="0%"></stop>
            <stop stop-color="#FF5268" offset="98.1226084%"></stop>
        </radialGradient>
        <radialGradient cx="47.5225778%" cy="53.6531594%" fx="47.5225778%" fy="53.6531594%" r="46.3468406%" id="radialGradient-3">
            <stop stop-color="#FFFFFF" offset="0%"></stop>
            <stop stop-color="#FFEFF0" offset="100%"></stop>
        </radialGradient>
        <radialGradient cx="52.1071732%" cy="66.7331814%" fx="52.1071732%" fy="66.7331814%" r="66.049268%" gradientTransform="translate(0.521072,0.667332),scale(0.715198,1.000000),rotate(90.000000),translate(-0.521072,-0.667332)" id="radialGradient-4">
            <stop stop-color="#FEFBE5" offset="0%"></stop>
            <stop stop-color="#FFCC44" offset="97.0922353%"></stop>
        </radialGradient>
        <radialGradient cx="50%" cy="50%" fx="50%" fy="50%" r="46.5160697%" id="radialGradient-5">
            <stop stop-color="#FFF7D7" offset="0%"></stop>
            <stop stop-color="#FFC937" offset="100%"></stop>
        </radialGradient>
    </defs>
    <g id="我的" stroke="none" stroke-width="1" fill="none" fill-rule="evenodd">
        <g id="1_1个人中心首页" transform="translate(-123.000000, -277.000000)">
            <g id="皇冠" transform="translate(123.000000, 277.000000)">
                <rect id="Rectangle-3" fill="url(#linearGradient-1)" x="5" y="11" width="124" height="18" rx="9"></rect>
                <path d="M14.9933036,5.63504464 C8.7890625,5.63504464 3.75669643,9.40848214 3.75669643,14.0625 C3.75669643,18.7165179 8.7890625,22.4899554 14.9933036,22.4899554 C21.2008929,22.4899554 26.2299107,18.7165179 26.2299107,14.0625 C26.2332589,9.40848214 21.2008929,5.63504464 14.9933036,5.63504464 Z" id="Shape" fill="url(#radialGradient-2)" fill-rule="nonzero"></path>
                <path d="M14.0591518,16.8716518 C13.5435268,16.8716518 13.1216518,16.453125 13.1216518,15.9341518 C13.1216518,15.4185268 13.5401786,14.9966518 14.0591518,14.9966518 C14.5747768,14.9966518 14.9966518,15.4151786 14.9966518,15.9341518 C14.9933036,16.453125 14.5747768,16.8716518 14.0591518,16.8716518 Z" id="Path" fill="url(#radialGradient-3)"></path>
                <path d="M20.6149554,12.2994848 L14.9933036,3.76339286 L9.375,12.2994848 L1.88504464,8.8862692 L5.57902269,22.5133929 L24.4710324,22.5133929 L28.1015625,8.8862692 L20.6149554,12.2994848 Z M11.2466518,15.7157533 C11.2466518,13.8290206 12.9241071,12.2994848 14.9933036,12.2994848 C17.0625,12.2994848 18.7399554,13.8290206 18.7399554,15.7157533 C18.7399554,17.6024861 17.0625,19.1320219 14.9933036,19.1320219 C12.9241071,19.1320219 11.2466518,17.6024861 11.2466518,15.7157533 Z" id="Shape" fill="url(#radialGradient-4)" fill-rule="nonzero"></path>
                <path d="M27.9460008,8.54505732 C28.2342385,8.41364701 28.5454746,8.67670618 28.4639229,8.98280903 L24.8333928,22.6099327 C24.7896471,22.7741314 24.6409586,22.8883929 24.4710324,22.8883929 L5.57902269,22.8883929 C5.40970176,22.8883929 5.26138489,22.7749283 5.21708492,22.6115053 L1.52310687,8.98438162 C1.44003528,8.67792967 1.75162321,8.41336602 2.04054881,8.54503108 L9.23830228,11.8250886 L14.6800635,3.55722383 C14.8282013,3.33215273 15.1582878,3.33210757 15.3064872,3.55713813 L20.751542,11.8250797 L27.9460008,8.54505732 Z M20.7705171,12.6406967 C20.6023598,12.7173611 20.4034189,12.6600838 20.3017717,12.5057395 L14.9933969,4.44533708 L9.68824006,12.5056538 C9.58662691,12.6600383 9.38767959,12.7173652 9.21949583,12.6407229 L2.4557941,9.55846525 L5.86590306,22.1383929 L24.1828592,22.1383929 L27.5348464,9.55677442 L20.7705171,12.6406967 Z M11.6216518,15.7157533 C11.6216518,17.3872582 13.1238837,18.7570219 14.9933036,18.7570219 C16.8627235,18.7570219 18.3649554,17.3872582 18.3649554,15.7157533 C18.3649554,14.0442484 16.8627235,12.6744848 14.9933036,12.6744848 C13.1238837,12.6744848 11.6216518,14.0442484 11.6216518,15.7157533 Z M10.8716518,15.7157533 C10.8716518,13.6137927 12.7243306,11.9244848 14.9933036,11.9244848 C17.2622765,11.9244848 19.1149554,13.6137927 19.1149554,15.7157533 C19.1149554,17.817714 17.2622765,19.5070219 14.9933036,19.5070219 C12.7243306,19.5070219 10.8716518,17.817714 10.8716518,15.7157533 Z" id="Shape-Copy" fill="#F6A808" fill-rule="nonzero"></path>
                <path d="M1.88504464,7.50669643 C2.91964286,7.50669643 3.75669643,8.34375 3.75669643,9.37834821 C3.75669643,10.4129464 2.91964286,11.25 1.88504464,11.25 C0.850446429,11.25 0.0133928571,10.4129464 0.0133928571,9.37834821 C0.0133928571,8.34709821 0.850446429,7.50669643 1.88504464,7.50669643 Z" id="Shape" fill="url(#radialGradient-5)" fill-rule="nonzero"></path>
                <path d="M14.9933036,0.0167410714 C17.0625,0.0167410714 18.7399554,1.69419643 18.7399554,3.76339286 C18.7399554,5.83258929 17.0625,7.51004464 14.9933036,7.51004464 C12.9241071,7.51004464 11.2466518,5.83258929 11.2466518,3.76339286 C11.2466518,1.69419643 12.9274554,0.0167410714 14.9933036,0.0167410714 Z" id="Shape" fill="url(#radialGradient-5)" fill-rule="nonzero"></path>
                <path d="M28.1049107,7.50669643 C29.1395089,7.50669643 29.9765625,8.34375 29.9765625,9.37834821 C29.9765625,10.4129464 29.1395089,11.25 28.1049107,11.25 C27.0703125,11.25 26.2332589,10.4129464 26.2332589,9.37834821 C26.2332589,8.34709821 27.0703125,7.50669643 28.1049107,7.50669643 Z" id="Shape" fill="url(#radialGradient-5)" fill-rule="nonzero"></path>
                <path d="M5.48953966,24.0341587 L24.5446123,24.0341587 L24.5446123,24.0341587 C24.6481657,24.0341587 24.7321123,24.1181053 24.7321123,24.2216587 C24.7321123,24.2309803 24.7314172,24.240289 24.7300327,24.2495072 L24.3868986,26.5341587 L24.3868986,26.5341587 C24.1710705,27.9711835 22.9365239,29.0341587 21.4833818,29.0341587 L8.81267036,29.0341587 L8.81267036,29.0341587 C7.32996664,29.0341587 6.05323669,27.9879453 5.76183504,26.5341587 L5.30569647,24.2585088 L5.30569647,24.2585088 C5.28534471,24.1569751 5.35115575,24.0581673 5.45268954,24.0378155 C5.46482216,24.0353836 5.47716572,24.0341587 5.48953966,24.0341587 Z" id="Rectangle-19" fill="#FFD970"></path>
                <path d="M6.49292362,26.3430222 C6.70809146,27.4164825 7.54434072,28.1776092 8.50858275,28.1776092 L21.7904368,28.1776092 C22.7082299,28.1776092 23.492533,27.422444 23.6476942,26.3893513 L23.8727769,24.8907082 L6.20181715,24.8907082 L6.49292362,26.3430222 Z M24.5399763,24.0341587 C24.6435297,24.0341587 24.7274763,24.1300313 24.7274763,24.2482961 C24.7274763,24.2604289 24.7265734,24.2725398 24.7247774,24.284498 L24.3868986,26.5341587 C24.1699819,27.9784313 23.0735195,29.0341587 21.7904368,29.0341587 L8.50858275,29.0341587 C7.19460583,29.0341587 6.05504521,27.9969679 5.76183504,26.5341587 L5.3132274,24.2960802 C5.29011976,24.1807975 5.35321719,24.0659487 5.45415946,24.0395583 C5.46330942,24.0371661 11.8252484,24.0353662 24.5399763,24.0341587 Z" id="Rectangle-19-Copy" fill="#F6A808" fill-rule="nonzero"></path>
            </g>
        </g>
    </g>
</svg>